<svg width="337" height="376" viewBox="0 0 337 376" fill="none" xmlns="http://www.w3.org/2000/svg">
<path d="M277.896 110.165C267.26 146.724 204.936 160.752 138.69 141.497C78.9199 124.125 36.3791 85.5946 36.4454 51.3761C36.4526 47.6689 36.9598 44.0124 37.9994 40.4389C48.6351 3.88004 110.96 -10.1481 177.205 9.10614C209.26 18.4228 236.359 33.8248 254.588 51.3836C270.834 67.032 280.035 84.3933 279.421 100.687C279.3 103.895 278.799 107.061 277.896 110.165Z" fill="#181818"/>
<path d="M138.69 141.497C204.936 160.752 267.26 146.724 277.896 110.165C278.799 107.061 279.3 103.895 279.421 100.687V274.236C279.3 277.443 278.799 280.61 277.896 283.714C267.26 320.272 204.936 334.301 138.69 315.046C78.9199 297.674 36.3791 259.144 36.4454 224.925V51.536C36.4453 51.4827 36.4453 51.4294 36.4454 51.3761V51.536C36.5116 85.7146 79.013 124.152 138.69 141.497Z" fill="url(#paint0_radial_109_1699)"/>
<g filter="url(#filter0_f_109_1699)">
<path d="M86.1023 263.091L26.9248 195.491V263.091L73.4214 313.087L210.093 349L282.656 329.283L310.132 279.287L288.292 237.037L255.181 279.287L202.344 295.483L86.1023 263.091Z" fill="#F8F8F8"/>
</g>
<defs>
<filter id="filter0_f_109_1699" x="0.15402" y="168.72" width="336.748" height="207.05" filterUnits="userSpaceOnUse" color-interpolation-filters="sRGB">
<feFlood flood-opacity="0" result="BackgroundImageFix"/>
<feBlend mode="normal" in="SourceGraphic" in2="BackgroundImageFix" result="shape"/>
<feGaussianBlur stdDeviation="13.3854" result="effect1_foregroundBlur_109_1699"/>
</filter>
<radialGradient id="paint0_radial_109_1699" cx="0" cy="0" r="1" gradientUnits="userSpaceOnUse" gradientTransform="translate(147.035 66.3206) rotate(44.257) scale(586.365 443.672)">
<stop offset="0.0880926" stop-color="#181818"/>
<stop offset="0.300639" stop-color="white"/>
<stop offset="0.847092" stop-color="white"/>
</radialGradient>
</defs>
</svg>
